<svg data-v-423bf9ae="" xmlns="http://www.w3.org/2000/svg" viewBox="0 0 396 90" class="iconLeft"><!----><!----><!----><g data-v-423bf9ae="" id="60700b75-fa48-435d-bc09-be347aee8334" fill="#ffffff" transform="matrix(4.622496310940746,0,0,4.622496310940746,107.96609682354799,0.023112146887001472)"><path d="M3.89 13.34C5.35 13.34 7.07 12.59 7.07 10.65C7.07 9.17 5.92 8.31 4.51 7.82C3.11 7.31 2.58 6.91 2.58 6.14C2.58 5.40 3.24 4.87 4.07 4.87C4.80 4.87 5.32 5.13 5.95 5.70L6.91 4.71C6.24 4.08 5.40 3.59 4.07 3.59C2.48 3.59 1.05 4.64 1.05 6.15C1.05 7.86 2.22 8.46 3.76 9.01C4.71 9.35 5.50 9.79 5.50 10.70C5.50 11.61 4.62 12.06 3.81 12.06C2.90 12.06 2.16 11.72 1.49 10.89L0.44 11.90C1.27 12.83 2.35 13.34 3.89 13.34ZM11.83 6.53L10.41 6.53L10.41 4.64L9.01 4.64L9.01 6.53L8.14 6.53L8.14 7.67L9.01 7.67L9.01 13.15L10.43 13.15L10.41 7.67L11.83 7.67ZM18.11 6.53L17.92 7.45C17.41 6.78 16.64 6.36 15.62 6.36C13.90 6.36 12.53 7.69 12.53 9.84C12.53 12.00 13.90 13.31 15.62 13.31C16.63 13.31 17.40 12.89 17.91 12.22L18.11 13.15L19.28 13.15L19.28 6.53ZM15.95 12.12C14.76 12.12 13.97 11.14 13.97 9.84C13.97 8.55 14.76 7.55 15.95 7.55C17.19 7.55 18.00 8.55 18.00 9.84C18.00 11.14 17.19 12.12 15.95 12.12ZM24.63 6.36C23.68 6.36 22.95 6.72 22.44 7.32L22.44 3.24L21.03 3.24L21.03 13.15L22.18 13.15L22.36 12.25C22.87 12.91 23.64 13.31 24.63 13.31C26.35 13.31 27.72 12.00 27.72 9.84C27.72 7.69 26.35 6.36 24.63 6.36ZM24.30 12.12C23.06 12.12 22.25 11.14 22.25 9.84C22.25 8.55 23.06 7.55 24.30 7.55C25.49 7.55 26.28 8.55 26.28 9.84C26.28 11.14 25.49 12.12 24.30 12.12ZM29.18 13.15L30.60 13.15L30.60 3.24L29.18 3.24ZM38.70 9.70C38.70 7.73 37.38 6.36 35.45 6.36C33.47 6.36 32.04 7.89 32.04 9.84C32.04 11.80 33.45 13.31 35.63 13.31C36.76 13.31 37.73 12.92 38.32 12.25L37.35 11.46C36.92 11.94 36.36 12.19 35.61 12.19C34.37 12.19 33.63 11.33 33.53 10.15L38.70 10.15ZM35.45 7.50C36.49 7.50 37.16 8.12 37.30 9.17L33.59 9.17C33.79 8.17 34.48 7.50 35.45 7.50ZM43.66 3.82L40.40 3.82L40.40 13.15L41.88 13.15L41.88 9.45L43.66 9.44C45.15 9.42 46.67 8.44 46.67 6.64C46.67 4.81 45.15 3.82 43.66 3.82ZM43.11 8.30L41.88 8.27L41.88 4.99L43.11 4.97C44.42 4.96 45.12 5.59 45.12 6.64C45.12 7.70 44.42 8.31 43.11 8.30ZM53.20 6.53L53.01 7.45C52.50 6.78 51.73 6.36 50.71 6.36C48.99 6.36 47.61 7.69 47.61 9.84C47.61 12.00 48.99 13.31 50.71 13.31C51.71 13.31 52.49 12.89 53.00 12.22L53.20 13.15L54.37 13.15L54.37 6.53ZM51.04 12.12C49.85 12.12 49.06 11.14 49.06 9.84C49.06 8.55 49.85 7.55 51.04 7.55C52.28 7.55 53.08 8.55 53.08 9.84C53.08 11.14 52.28 12.12 51.04 12.12ZM60.67 6.53L58.71 11.35L56.76 6.53L55.26 6.53L58.01 12.99L56.58 16.22L58.04 16.22L62.18 6.53Z"></path></g><!----><g data-v-423bf9ae="" id="9312b063-2e09-4cc4-8981-8c12fef3f1fb" transform="matrix(2.8125,0,0,2.8125,0,0)" stroke="none" fill="#21C7D4"><path d="M4.029 14.362L14.362 4.028l.707.707L4.736 15.07zM17.135 27.47L27.47 17.135l.707.707-10.333 10.333zM4.029 17.841l.707-.707 10.333 10.334-.707.707zM17.135 4.735l.708-.707L28.176 14.36l-.707.707z"></path><g><path d="M16 1.414l1.683 1.683L16 4.779l-1.683-1.683L16 1.414M16 0l-3.097 3.097L16 6.194l3.097-3.097L16 0zM16 27.221l1.683 1.683L16 30.586l-1.683-1.683L16 27.221m0-1.415l-3.097 3.097L16 32l3.097-3.097L16 25.806zM3.097 14.317L4.779 16l-1.683 1.683L1.414 16l1.683-1.683m0-1.414L0 16l3.097 3.097L6.194 16l-3.097-3.097zM28.903 14.317L30.586 16l-1.683 1.683L27.221 16l1.682-1.683m0-1.414L25.806 16l3.097 3.097L32 16l-3.097-3.097z"></path></g></g><!----></svg>